<svg width="70" height="70" viewBox="0 0 70 70" fill="none" xmlns="http://www.w3.org/2000/svg">
<path d="M9.16661 18.1628C8.97848 18.3137 9.16333 18.5073 9.21473 18.5937C9.37661 18.8475 9.90051 19.1526 10.8827 19.2434C11.1671 19.2675 11.4668 19.2726 11.7818 19.2587L13.5821 19.1734C14.841 19.1154 16.02 18.5828 16.7157 17.8478C16.7168 17.8467 11.4121 16.3767 9.16661 18.1628ZM19.8525 18.1333C20.406 18.982 21.4658 19.7192 22.6952 20.0036L24.4496 20.4137C24.758 20.4859 25.0577 20.534 25.3388 20.5603C26.3243 20.6511 26.8908 20.4444 27.0943 20.2234C27.1632 20.1501 27.3819 19.9915 27.2211 19.8089C25.3366 17.6465 19.8525 18.1333 19.8525 18.1333Z" fill="#5386E4"/>
<path d="M63.8531 13.6587L65.4828 7.95266L59.8719 6.2125L60.2394 5.0925L52.1237 2.5375L51.7475 3.69031L46.9088 2.1875L42.4156 13.6587H35.4506L31.3873 15.2983L31.8872 4.71844L22.2994 3.83469L22.3256 3.27141L15.8113 2.67312L15.785 3.23422L4.41437 2.1875L4.10047 13.2497L3.64766 13.2125L3.49891 19.1242L3.93203 19.1472L3.65531 28.8466H2.1875V67.8125L10.3906 63.7109L18.5938 67.8125H67.8125V13.6587H63.8531ZM20.6084 15.7238C20.4032 15.8691 20.1858 15.9964 19.9587 16.1044C20.0047 15.423 19.9992 15.0117 19.9369 14.7722C20.7484 14.0689 21.9231 13.5844 23.1973 13.5242L24.9977 13.4389C25.1216 13.4331 25.2434 13.4302 25.363 13.4302C27.3984 13.4302 28.6486 14.2581 28.1761 15.3486C27.673 16.5047 27.4969 18.4559 27.7802 19.6809C27.9934 20.6084 27.1578 21.1684 25.7906 21.1684C25.3466 21.1684 24.8478 21.1094 24.3097 20.9847L22.5553 20.5756C21.3216 20.288 20.2584 19.6066 19.5858 18.7753C19.7105 18.4745 19.8002 17.9003 19.8964 16.8634C20.2803 16.9772 20.7397 17.0384 21.2789 16.952C24.2791 16.4762 22.2206 14.5928 20.6084 15.7238ZM6.40281 4.43078L15.692 5.28719L15.4098 11.4023L15.3923 11.9908C15.0997 11.876 14.7993 11.7825 14.4933 11.7108L12.7389 11.3006C12.1777 11.1659 11.6032 11.0951 11.0261 11.0895C9.83281 11.0895 8.92609 11.4363 8.40547 12.0914C8.07406 12.5092 7.94391 13.0266 8.00406 13.5702L6.14906 13.417L6.40281 4.43078ZM5.98062 19.2631L7.79078 19.3648C7.81156 19.3998 7.82031 19.437 7.84328 19.472C8.33766 20.2245 9.35266 20.7036 10.6772 20.8381C9.95859 22.3792 8.87578 23.9903 7.22312 25.2306L5.78156 26.3112L5.98062 19.2631ZM10.7603 28.8477H5.70719L5.76406 26.8909L7.74594 27.0714L10.8981 27.3569L10.7603 28.8477ZM14.9111 28.8477H14.5502C14.6759 28.6191 14.8017 28.3905 14.9319 28.1411L14.9111 28.8477ZM13.3591 28.8477H11.7906L12.0105 26.4283L7.83672 26.0498C9.79781 24.5777 11.0228 22.6537 11.7961 20.872L11.8661 20.8698L13.6664 20.7856C14.7621 20.7358 15.8283 20.4149 16.7694 19.8516C16.1084 23.0097 14.9578 26.045 13.3591 28.8477ZM15.5269 16.4292C16.042 16.6119 16.5069 16.6337 16.905 16.5911C16.8109 17.6291 16.7956 18.2087 16.8634 18.5281C16.053 19.2238 14.8827 19.7017 13.6183 19.7608L11.818 19.845C11.6948 19.8509 11.5716 19.8538 11.4483 19.8538C9.415 19.8538 8.16703 19.0258 8.63953 17.9364C9.14266 16.7803 9.32094 14.8302 9.03438 13.603C8.82 12.6766 9.65781 12.1144 11.0239 12.1144C11.468 12.1144 11.9678 12.1745 12.5048 12.2992L14.2603 12.7094C15.5039 12.9981 16.5703 13.6894 17.243 14.5272C17.138 14.7514 17.0581 15.1539 16.9816 15.832C16.7775 15.685 16.5865 15.5207 16.4106 15.3409C15.0281 13.9377 12.6634 15.4175 15.5269 16.4292ZM18.2 18.9306C17.2277 18.842 16.905 19.7291 17.1938 16.5659C17.4825 13.4006 17.6389 14.3325 18.6123 14.4222C19.5836 14.5108 19.9084 13.6216 19.6197 16.7858C19.3288 19.9511 19.1723 19.0192 18.2 18.9306ZM22.7981 28.8477H20.9245C20.014 26.0147 19.5138 23.0659 19.4392 20.0911C20.2627 20.8171 21.2539 21.3267 22.3234 21.5742L24.0778 21.9822L24.1467 21.9953C24.5842 23.8875 25.4428 26.0039 27.1042 27.8064L22.9294 27.4236L22.7981 28.8477ZM23.8273 28.8477L23.8547 28.5381L27.0102 28.828L27.2278 28.8487L23.8273 28.8477ZM28.7317 28.0591L27.8578 27.1108C26.4545 25.5883 25.6845 23.8066 25.2547 22.1605C25.4352 22.1747 25.6178 22.1944 25.7906 22.1944C26.9839 22.1944 27.8906 21.8498 28.4112 21.1947C28.5688 20.9978 28.6694 20.7747 28.7427 20.5417L29.0861 20.5614L28.7317 28.0591ZM29.3344 15.3169L29.2534 15.3103C29.3628 14.7864 29.2709 14.268 28.9723 13.8119C28.3861 12.9183 27.0692 12.4053 25.363 12.4053C25.2273 12.4053 25.0899 12.4086 24.9506 12.4152L23.1492 12.5005C22.7212 12.525 22.2965 12.5895 21.8805 12.693L22.2031 5.88656L29.7467 6.58219L29.3344 15.3169ZM53.4439 5.10234L57.6461 6.42578L55.2781 13.6587H50.6527L53.4439 5.10234ZM56.5337 40.9642V48.8491C56.5337 51.5703 56.3008 54.3266 54.6427 56.6202C52.4836 59.6083 49.058 61.7816 45.2539 61.6536C37.9706 61.4097 33.9741 55.6817 33.9741 48.8491V40.9642C33.376 40.7532 32.8578 40.3623 32.4906 39.8451C32.1235 39.328 31.9253 38.7099 31.9233 38.0756C31.9448 37.2738 32.2785 36.5121 32.8532 35.9527C33.428 35.3932 34.1985 35.0803 35.0005 35.0804C35.8026 35.0805 36.573 35.3938 37.1475 35.9534C37.7221 36.5131 38.0555 37.2749 38.0767 38.0767C38.0755 38.7112 37.8776 39.3296 37.5104 39.8469C37.1431 40.3642 36.6245 40.755 36.0259 40.9653V46.5566C36.0259 48.3241 35.7809 50.4197 36.1977 52.162C37.1908 56.3073 40.7914 59.7516 45.2539 59.6017C49.8641 59.4475 54.297 55.9453 54.46 51.0683C54.5103 49.5644 54.483 48.0605 54.483 46.5566V40.9653C53.8849 40.7543 53.3667 40.3634 52.9995 39.8462C52.6324 39.329 52.4342 38.711 52.4322 38.0767C52.4536 37.2749 52.7871 36.5131 53.3618 35.9536C53.9364 35.3941 54.7068 35.081 55.5089 35.081C56.311 35.081 57.0814 35.3941 57.656 35.9536C58.2307 36.5131 58.5642 37.2749 58.5856 38.0767C58.5833 38.7109 58.3849 39.3288 58.0175 39.8458C57.6502 40.3628 57.1319 40.7534 56.5337 40.9642ZM65.7617 28.8477H36.4766V15.7095H65.7617V28.8477Z" fill="#5386E4"/>
</svg>
