<svg width="81" height="90" viewBox="0 0 81 90" fill="none" xmlns="http://www.w3.org/2000/svg">
<path opacity="0.4" fill-rule="evenodd" clip-rule="evenodd" d="M46.6434 21.0619C46.6434 19.336 45.2441 17.9369 43.5184 17.9369C41.7925 17.9369 40.3934 19.336 40.3934 21.0619V41.3744H38.5362C37.9875 41.3741 37.3134 41.3735 36.7621 41.4425L36.7517 41.4438C36.3565 41.4931 34.5564 41.7175 33.699 43.485C32.8397 45.2566 33.7833 46.8194 33.9874 47.1575L33.995 47.17C34.2832 47.6485 34.7024 48.1822 35.0472 48.6216L35.1214 48.716C36.0421 49.8906 37.2358 51.4038 38.4247 52.6256C39.0178 53.2353 39.6969 53.8641 40.4184 54.3606C41.0597 54.8019 42.1541 55.4369 43.5 55.4369C44.8459 55.4369 45.9403 54.8019 46.5816 54.3606C47.3031 53.8641 47.9822 53.2353 48.5753 52.6256C49.7644 51.4038 50.9578 49.8906 51.8787 48.716L51.9528 48.6216C52.2975 48.1822 52.7169 47.6485 53.005 47.17L53.0125 47.1575C53.2166 46.8194 54.1603 45.2566 53.3009 43.485C52.4437 41.7175 50.6434 41.4931 50.2484 41.4438L50.2378 41.4425C49.6866 41.3735 49.0125 41.3741 48.4637 41.3744H46.6434V21.0619Z" fill="#141B34"/>
<path fill-rule="evenodd" clip-rule="evenodd" d="M18.5 55.4375C20.2259 55.4375 21.625 56.8366 21.625 58.5625C21.625 60.4341 21.7267 61.7206 21.9263 62.6291C22.1182 63.5022 22.3554 63.8156 22.4886 63.9488C22.6218 64.0822 22.9354 64.3194 23.8085 64.5113C24.717 64.7106 26.0036 64.8125 27.875 64.8125H59.125C60.9966 64.8125 62.2831 64.7106 63.1916 64.5113C64.0647 64.3194 64.3781 64.0822 64.5112 63.9488C64.6447 63.8156 64.8819 63.5022 65.0738 62.6291C65.2731 61.7206 65.375 60.4341 65.375 58.5625C65.375 56.8366 66.7741 55.4375 68.5 55.4375C70.2259 55.4375 71.625 56.8366 71.625 58.5625C71.625 60.5691 71.5244 62.3934 71.1781 63.97C70.8241 65.5819 70.1719 67.1272 68.9309 68.3684C67.6897 69.6094 66.1444 70.2616 64.5325 70.6156C62.9559 70.9619 61.1316 71.0625 59.125 71.0625H27.875C25.8683 71.0625 24.0439 70.9619 22.4675 70.6156C20.8556 70.2616 19.3102 69.6094 18.0692 68.3684C16.8282 67.1272 16.176 65.5819 15.8219 63.97C15.4756 62.3934 15.375 60.5691 15.375 58.5625C15.375 56.8366 16.7741 55.4375 18.5 55.4375Z" fill="#141B34"/>
<path fill-rule="evenodd" clip-rule="evenodd" d="M32.6118 0.491151C44.4773 0.0874927 58.514 1.4408 65.122 11.3041C71.4282 20.717 62.1951 32.498 61.6364 43.8143C61.1332 54.0085 67.5177 64.6388 62.0633 73.2657C55.8159 83.1469 44.1394 91.6662 32.6118 89.721C21.4779 87.8422 17.4664 74.4482 11.6648 64.7613C7.7574 58.2371 6.4915 51.2941 5.11792 43.8143C3.20854 33.4169 -3.42358 22.369 2.24085 13.4433C8.37144 3.78315 21.1772 0.880156 32.6118 0.491151Z" fill="#E63946" fill-opacity="0.1"/>
</svg>
