<svg width="89" height="89" viewBox="0 0 89 89" fill="none" xmlns="http://www.w3.org/2000/svg">
<path fill-rule="evenodd" clip-rule="evenodd" d="M32.0131 0.0290747C43.2568 0.830195 43.14 18.1921 50.0316 27.1121C55.2546 33.8725 65.724 36.6632 66.8582 45.1306C68.0607 54.108 61.383 61.7473 55.6054 68.7229C48.9816 76.7203 42.3184 85.9223 32.0131 87.2009C20.8396 88.5872 7.47358 85.0947 1.73746 75.4063C-3.69074 66.2379 5.15764 55.6059 7.10515 45.1306C8.44719 37.912 7.68047 30.7747 11.23 24.3475C16.589 14.6439 20.9561 -0.758749 32.0131 0.0290747Z" fill="#13C4A3" fill-opacity="0.1"/>
<path d="M67.125 76.5C70.5768 76.5 73.375 73.7018 73.375 70.25C73.375 66.7982 70.5768 64 67.125 64C63.6732 64 60.875 66.7982 60.875 70.25C60.875 73.7018 63.6732 76.5 67.125 76.5Z" stroke="#141B34" stroke-width="4.6875"/>
<path d="M35.875 76.5C39.3268 76.5 42.125 73.7018 42.125 70.25C42.125 66.7982 39.3268 64 35.875 64C32.4232 64 29.625 66.7982 29.625 70.25C29.625 73.7018 32.4232 76.5 35.875 76.5Z" stroke="#141B34" stroke-width="4.6875"/>
<path d="M29.625 70.1638C26.1978 69.9931 24.0597 69.4831 22.5382 67.9619C21.0167 66.4403 20.5069 64.3022 20.3361 60.875M42.125 70.25H60.875M73.375 70.1638C76.8022 69.9931 78.9403 69.4831 80.4619 67.9619C82.75 65.6734 82.75 61.9906 82.75 54.625V48.375H68.0625C65.7359 48.375 64.5725 48.375 63.6312 48.0691C61.7284 47.4509 60.2366 45.9591 59.6184 44.0563C59.3125 43.1149 59.3125 41.9516 59.3125 39.625C59.3125 36.1351 59.3125 34.3902 58.8537 32.978C57.9262 30.1239 55.6888 27.8862 52.8347 26.9588C51.4225 26.5 49.6775 26.5 46.1875 26.5H20.25" stroke="#141B34" stroke-width="4.6875" stroke-linecap="round" stroke-linejoin="round"/>
<path opacity="0.4" d="M20.25 39H39" stroke="#141B34" stroke-width="4.6875" stroke-linecap="round" stroke-linejoin="round"/>
<path opacity="0.4" d="M20.25 48.375H32.75" stroke="#141B34" stroke-width="4.6875" stroke-linecap="round" stroke-linejoin="round"/>
<path d="M59.3125 32.75H65.0037C69.5519 32.75 71.8256 32.75 73.6762 33.8553C75.5269 34.9607 76.605 36.9628 78.7613 40.9672L82.75 48.375" stroke="#141B34" stroke-width="4.6875" stroke-linecap="round" stroke-linejoin="round"/>
</svg>
