<svg width="70" height="70" viewBox="0 0 70 70" fill="none" xmlns="http://www.w3.org/2000/svg">
<path d="M56.1671 43.4957C53.5446 45.0898 50.5326 45.9282 47.4636 45.9183C44.8925 45.898 42.3505 45.3721 39.9823 44.3707C38.1572 46.9473 37.1804 50.0287 37.1878 53.1863V61.25C37.1884 61.5498 37.1274 61.8467 37.0086 62.122C36.8897 62.3973 36.7155 62.6452 36.4967 62.8503C36.278 63.0555 36.0194 63.2135 35.7371 63.3145C35.4547 63.4155 35.1546 63.4573 34.8554 63.4375C34.2931 63.3885 33.7701 63.1288 33.3913 62.7104C33.0125 62.2921 32.8058 61.746 32.8128 61.1816V57.78L22.2526 47.2199C20.6828 47.8055 19.0226 48.1119 17.3472 48.125C15.0406 48.131 12.7772 47.4998 10.8065 46.3011C4.84833 42.6808 1.64091 34.3492 2.26161 24.005C2.29287 23.4699 2.51954 22.9648 2.8986 22.5858C3.27765 22.2067 3.78271 21.98 4.31786 21.9488C14.662 21.339 22.9936 24.5355 26.603 30.4937C28.0211 32.8291 28.6402 35.5627 28.3667 38.2812C28.3497 38.4918 28.272 38.693 28.1431 38.8605C28.0142 39.0279 27.8396 39.1544 27.6403 39.2247C27.441 39.295 27.2256 39.306 27.0202 39.2565C26.8148 39.207 26.6281 39.099 26.4827 38.9457L21.2327 33.4496C20.8191 33.0567 20.2684 32.8408 19.698 32.8481C19.1276 32.8554 18.5826 33.0853 18.1792 33.4887C17.7758 33.892 17.546 34.437 17.5387 35.0075C17.5314 35.5779 17.7472 36.1286 18.1401 36.5422L32.8729 51.6496C32.8893 51.4363 32.9085 51.223 32.9304 51.0125C33.4087 46.9567 35.1984 43.1681 38.0272 40.2226L51.8604 25.6047C52.2709 25.1946 52.5016 24.6382 52.5019 24.058C52.5022 23.4777 52.2719 22.9212 51.8618 22.5107C51.4517 22.1002 50.8953 21.8695 50.3151 21.8692C49.7349 21.869 49.1783 22.0992 48.7679 22.5093L35.3694 36.6789C35.2353 36.8209 35.0656 36.9245 34.8779 36.9787C34.6902 37.033 34.4915 37.036 34.3022 36.9874C34.113 36.9389 33.9402 36.8405 33.8019 36.7026C33.6635 36.5646 33.5647 36.3922 33.5155 36.2031C32.2194 31.4234 32.7909 26.6656 35.2655 22.5804C40.1491 14.5195 51.5132 10.2047 65.6663 11.0359C66.2015 11.0672 66.7065 11.2938 67.0856 11.6729C67.4646 12.0519 67.6913 12.557 67.7225 13.0922C68.5429 27.248 64.228 38.6121 56.1671 43.4957Z" fill="#5386E4"/>
</svg>
