<svg width="22" height="22" viewBox="0 0 22 22" fill="none" xmlns="http://www.w3.org/2000/svg">
<path d="M11.0014 8.25041C9.48212 8.25041 8.25138 9.48158 8.25138 11.0004C8.25138 12.5196 9.48258 13.7504 11.0014 13.7504C12.5206 13.7504 13.7514 12.5192 13.7514 11.0004C13.7514 9.48122 12.5202 8.25041 11.0014 8.25041ZM11.0014 6.41707C13.5318 6.41707 15.5847 8.46775 15.5847 11.0004C15.5847 13.5309 13.5341 15.5837 11.0014 15.5837C8.47095 15.5837 6.41805 13.5331 6.41805 11.0004C6.41805 8.46998 8.46873 6.41707 11.0014 6.41707ZM16.9597 6.18713C16.9597 6.81973 16.4457 7.33298 15.8139 7.33298C15.1813 7.33298 14.6681 6.81894 14.6681 6.18713C14.6681 5.55531 15.182 5.04207 15.8139 5.04207C16.4448 5.04128 16.9597 5.55531 16.9597 6.18713ZM11.0014 3.66707C8.73311 3.66707 8.3634 3.67308 7.3084 3.72006C6.58962 3.7538 6.1078 3.85047 5.66013 4.02427C5.2623 4.17856 4.97532 4.3628 4.66955 4.66858C4.3626 4.97552 4.17869 5.26173 4.02502 5.65975C3.85082 6.10845 3.75417 6.58951 3.72103 7.30729C3.6736 8.31934 3.66805 8.67304 3.66805 11.0004C3.66805 13.2687 3.67405 13.6384 3.72102 14.6933C3.75479 15.4118 3.85159 15.8943 4.02496 16.3409C4.17966 16.7393 4.36428 17.0269 4.66857 17.3313C4.97673 17.639 5.26379 17.8235 5.65803 17.9757C6.11116 18.1509 6.59268 18.2477 7.30826 18.2808C8.32032 18.3281 8.67401 18.3337 11.0014 18.3337C13.2697 18.3337 13.6394 18.3277 14.6943 18.2808C15.4112 18.2471 15.8941 18.15 16.3419 17.9768C16.7392 17.8225 17.0278 17.6373 17.3323 17.3332C17.6405 17.0246 17.8246 16.7382 17.977 16.343C18.1517 15.8916 18.2487 15.4094 18.2818 14.6936C18.3291 13.6815 18.3347 13.3277 18.3347 11.0004C18.3347 8.73213 18.3287 8.36243 18.2818 7.3075C18.248 6.59038 18.1509 6.10677 17.9775 5.65916C17.8236 5.26242 17.6387 4.97456 17.3332 4.66858C17.0257 4.36113 16.7403 4.17759 16.342 4.02404C15.8937 3.84999 15.4119 3.7532 14.6945 3.72007C13.6825 3.67262 13.3287 3.66707 11.0014 3.66707ZM11.0014 1.83374C13.4916 1.83374 13.8026 1.84291 14.7804 1.88874C15.7558 1.93381 16.4212 2.08812 17.0056 2.31499C17.6097 2.54798 18.1201 2.8627 18.6295 3.37221C19.1383 3.88173 19.4531 4.39353 19.6868 4.99624C19.9129 5.57985 20.0672 6.24596 20.1131 7.22145C20.1566 8.19923 20.1681 8.51013 20.1681 11.0004C20.1681 13.4907 20.1589 13.8016 20.1131 14.7794C20.068 15.7549 19.9129 16.4202 19.6868 17.0046C19.4538 17.6088 19.1383 18.1191 18.6295 18.6286C18.1201 19.1374 17.6075 19.4521 17.0056 19.6858C16.4212 19.912 15.7558 20.0662 14.7804 20.1121C13.8026 20.1556 13.4916 20.1671 11.0014 20.1671C8.5111 20.1671 8.2002 20.1579 7.22243 20.1121C6.24694 20.067 5.58235 19.912 4.99722 19.6858C4.39374 19.4528 3.8827 19.1374 3.37319 18.6286C2.86368 18.1191 2.54972 17.6065 2.31597 17.0046C2.08909 16.4202 1.93555 15.7549 1.88972 14.7794C1.84618 13.8016 1.83472 13.4907 1.83472 11.0004C1.83472 8.51013 1.84388 8.19923 1.88972 7.22145C1.93478 6.2452 2.08909 5.58061 2.31597 4.99624C2.54895 4.39277 2.86368 3.88173 3.37319 3.37221C3.8827 2.8627 4.39451 2.54874 4.99722 2.31499C5.58159 2.08812 6.24618 1.93457 7.22243 1.88874C8.2002 1.8452 8.5111 1.83374 11.0014 1.83374Z" fill="#1E1E1E"/>
</svg>
