<svg width="22" height="22" viewBox="0 0 22 22" fill="none" xmlns="http://www.w3.org/2000/svg">
<path d="M16.8083 16.8108H14.3649V12.982C14.3649 12.069 14.3464 10.8941 13.0916 10.8941C11.8177 10.8941 11.6231 11.8876 11.6231 12.9146V16.8108H9.17976V8.9375H11.5269V10.0106H11.5585C11.8865 9.39189 12.684 8.73881 13.8754 8.73881C16.3511 8.73881 16.809 10.3682 16.809 12.4891L16.8083 16.8108ZM6.42016 7.86019C5.63366 7.86019 5.00185 7.22356 5.00185 6.4405C5.00185 5.65813 5.63435 5.02219 6.42016 5.02219C7.20391 5.02219 7.83916 5.65813 7.83916 6.4405C7.83916 7.22356 7.20323 7.86019 6.42016 7.86019ZM7.64529 16.8108H5.19504V8.9375H7.64529V16.8108ZM18.0306 2.75H3.96854C3.29548 2.75 2.75098 3.28213 2.75098 3.93869V18.0614C2.75098 18.7185 3.29548 19.25 3.96854 19.25H18.0286C18.701 19.25 19.251 18.7185 19.251 18.0614V3.93869C19.251 3.28213 18.701 2.75 18.0286 2.75H18.0306Z" fill="#1E1E1E"/>
</svg>
