<svg width="20" height="20" viewBox="0 0 20 20" fill="none" xmlns="http://www.w3.org/2000/svg">
<path d="M15.2802 15.2825H13.059V11.8018C13.059 10.9718 13.0421 9.90375 11.9015 9.90375C10.7434 9.90375 10.5665 10.8069 10.5665 11.7406V15.2825H8.3452V8.125H10.479V9.10058H10.5077C10.8059 8.53808 11.5309 7.94437 12.614 7.94437C14.8646 7.94437 15.2809 9.42567 15.2809 11.3538L15.2802 15.2825ZM5.83648 7.14562C5.12148 7.14562 4.5471 6.56687 4.5471 5.855C4.5471 5.14375 5.1221 4.56563 5.83648 4.56563C6.54898 4.56563 7.12648 5.14375 7.12648 5.855C7.12648 6.56687 6.54835 7.14562 5.83648 7.14562ZM6.95023 15.2825H4.72273V8.125H6.95023V15.2825ZM16.3915 2.5H3.60773C2.99585 2.5 2.50085 2.98375 2.50085 3.58063V16.4194C2.50085 17.0168 2.99585 17.5 3.60773 17.5H16.3896C17.0009 17.5 17.5009 17.0168 17.5009 16.4194V3.58063C17.5009 2.98375 17.0009 2.5 16.3896 2.5H16.3915Z" fill="white"/>
</svg>
