<svg width="17" height="14" viewBox="0 0 17 14" fill="none" xmlns="http://www.w3.org/2000/svg">
<g clip-path="url(#clip0_2142_153)">
<path d="M15.8547 12.8814C15.889 12.8817 15.9231 12.875 15.9547 12.8618C15.9863 12.8486 16.0149 12.8291 16.0385 12.8045C16.0622 12.7799 16.0806 12.7507 16.0924 12.7188C16.1042 12.6869 16.1093 12.6529 16.1073 12.619C16.1073 12.4329 15.994 12.344 15.7613 12.344H15.3855V13.3182H15.5269V12.8936H15.7006L15.7046 12.8987L15.9741 13.3182H16.1253L15.8353 12.884L15.8547 12.8814ZM15.6912 12.7838H15.5273V12.4544H15.735C15.8424 12.4544 15.9647 12.4718 15.9647 12.6109C15.9647 12.7709 15.8409 12.7838 15.6904 12.7838" fill="#2767B2"/>
<path d="M12.1671 11.6606H10.1625V8.55227C10.1625 7.81105 10.1491 6.85688 9.11992 6.85688C8.07586 6.85688 7.91611 7.66446 7.91611 8.49831V11.6604H5.91151V5.26838H7.83592V6.14192H7.86286C8.05545 5.81587 8.33375 5.54765 8.66811 5.36583C9.00247 5.184 9.38038 5.09537 9.76159 5.10938C11.7933 5.10938 12.1679 6.43262 12.1679 8.15406L12.1671 11.6606ZM3.64967 4.39463C3.41959 4.39467 3.19466 4.32716 3.00334 4.20063C2.81201 4.07409 2.66289 3.89423 2.5748 3.68377C2.48672 3.47332 2.46363 3.24173 2.50848 3.01829C2.55332 2.79484 2.66408 2.58959 2.82674 2.42847C2.9894 2.26736 3.19666 2.15762 3.42231 2.11313C3.64796 2.06865 3.88186 2.09142 4.09444 2.17856C4.30702 2.2657 4.48872 2.4133 4.61658 2.6027C4.74444 2.79209 4.81271 3.01478 4.81275 3.24259C4.81278 3.39385 4.78271 3.54363 4.72428 3.68339C4.66584 3.82315 4.58018 3.95014 4.47218 4.05712C4.36418 4.1641 4.23595 4.24896 4.09482 4.30687C3.95369 4.36478 3.80243 4.3946 3.64967 4.39463ZM4.65196 11.6606H2.64528V5.26838H4.65196V11.6606ZM13.1665 0.247739H1.63798C1.37631 0.244815 1.12417 0.344871 0.936973 0.525921C0.749777 0.706971 0.642842 0.954201 0.639648 1.21329V12.6756C0.642733 12.9348 0.749605 13.1822 0.936795 13.3634C1.12399 13.5447 1.37618 13.6449 1.63798 13.6422H13.1665C13.4288 13.6454 13.6817 13.5455 13.8696 13.3642C14.0575 13.183 14.1651 12.9353 14.1688 12.6756V1.21246C14.165 0.95286 14.0574 0.705349 13.8694 0.524303C13.6815 0.343258 13.4287 0.243488 13.1665 0.246911" fill="#2767B2"/>
<path d="M15.7083 11.9102C15.4645 11.9125 15.2314 12.0103 15.0602 12.1823C14.889 12.3543 14.7935 12.5865 14.7947 12.828C14.7959 13.0695 14.8936 13.3007 15.0665 13.471C15.2393 13.6414 15.4733 13.737 15.7172 13.737C15.9611 13.737 16.1951 13.6414 16.368 13.471C16.5408 13.3007 16.6386 13.0695 16.6397 12.828C16.6409 12.5865 16.5455 12.3543 16.3742 12.1823C16.203 12.0103 15.97 11.9125 15.7261 11.9102H15.7083ZM15.7083 13.6324C15.5484 13.6351 15.3912 13.5907 15.2567 13.5049C15.1222 13.4191 15.0165 13.2957 14.9528 13.1504C14.8891 13.005 14.8704 12.8443 14.899 12.6884C14.9276 12.5325 15.0022 12.3886 15.1134 12.2747C15.2247 12.1608 15.3675 12.0822 15.5239 12.0487C15.6802 12.0152 15.8432 12.0284 15.992 12.0866C16.1408 12.1447 16.2688 12.2453 16.3599 12.3755C16.451 12.5058 16.501 12.6598 16.5037 12.8182C16.5037 12.8228 16.5037 12.8271 16.5037 12.8317C16.5082 13.0395 16.4291 13.2405 16.2839 13.3906C16.1387 13.5407 15.9393 13.6275 15.7294 13.632H15.7085" fill="#2767B2"/>
</g>
<defs>
<clipPath id="clip0_2142_153">
<rect width="16" height="13.5065" fill="white" transform="translate(0.639893 0.246826)"/>
</clipPath>
</defs>
</svg>
