<svg width="86" height="77" viewBox="0 0 86 77" fill="none" xmlns="http://www.w3.org/2000/svg">
<path d="M36.0002 52L63.2506 49.7291C71.7771 49.0188 73.6912 47.1563 74.6362 38.6528L76.6252 20.75" stroke="#141B34" stroke-width="4.6875" stroke-linecap="round"/>
<path d="M29.75 20.75H34.4375M79.75 20.75H70.375" stroke="#141B34" stroke-width="4.6875" stroke-linecap="round"/>
<path opacity="0.4" d="M43.8125 23.875C43.8125 23.875 46.9375 23.875 50.0625 30.125C50.0625 30.125 59.9891 14.5 68.8125 11.375" stroke="#141B34" stroke-width="4.6875" stroke-linecap="round" stroke-linejoin="round"/>
<path d="M29.7498 70.75C33.2015 70.75 35.9998 67.9518 35.9998 64.5C35.9998 61.0482 33.2015 58.25 29.7498 58.25C26.298 58.25 23.4998 61.0482 23.4998 64.5C23.4998 67.9518 26.298 70.75 29.7498 70.75Z" stroke="#141B34" stroke-width="4.6875"/>
<path d="M64.125 70.75C67.5768 70.75 70.375 67.9518 70.375 64.5C70.375 61.0482 67.5768 58.25 64.125 58.25C60.6732 58.25 57.875 61.0482 57.875 64.5C57.875 67.9518 60.6732 70.75 64.125 70.75Z" stroke="#141B34" stroke-width="4.6875"/>
<path opacity="0.4" d="M36.0002 64.5H57.8752" stroke="#141B34" stroke-width="4.6875" stroke-linecap="round"/>
<path d="M17.2502 8.25H20.269C23.2211 8.25 25.7944 10.2018 26.5104 12.9842L35.8081 49.1141C36.278 50.94 35.8759 52.8741 34.7135 54.38L31.7257 58.25" stroke="#141B34" stroke-width="4.6875" stroke-linecap="round"/>
<path fill-rule="evenodd" clip-rule="evenodd" d="M52.1014 5.03661C61.455 6.11338 72.3272 3.25288 78.7981 10.0923C85.2057 16.8648 82.4666 27.4713 82.1429 36.7891C81.837 45.5953 82.9758 55.2125 77.0057 61.6934C70.8851 68.3377 61.0427 68.112 52.1014 69.4009C40.6801 71.0473 28.5891 76.205 18.8079 70.0826C7.57624 63.0523 0.0696662 50.0393 0.000499301 36.7891C-0.0689124 23.4919 7.10366 10.0662 18.4585 3.14616C28.4291 -2.93038 40.5016 3.70127 52.1014 5.03661Z" fill="#061A40" fill-opacity="0.1"/>
</svg>
