<svg width="70" height="70" viewBox="0 0 70 70" fill="none" xmlns="http://www.w3.org/2000/svg">
<path d="M46.6667 31.4125C47.2694 31.4125 47.7944 31.1889 48.2417 30.7417C48.6889 30.2944 48.9125 29.7694 48.9125 29.1667C48.9125 28.5639 48.6889 28.0389 48.2417 27.5917C47.7944 27.1444 47.2694 26.9208 46.6667 26.9208C46.0639 26.9208 45.5389 27.1444 45.0917 27.5917C44.6444 28.0389 44.4208 28.5639 44.4208 29.1667C44.4208 29.7694 44.6444 30.2944 45.0917 30.7417C45.5389 31.1889 46.0639 31.4125 46.6667 31.4125ZM23.3333 24.7917H37.9167V21.875H23.3333V24.7917ZM15.3125 58.3333C13.8853 53.2389 12.4347 48.1863 10.9608 43.1754C9.48694 38.1646 8.75 33.0089 8.75 27.7083C8.75 24.0586 10.0256 20.9582 12.5767 18.4071C15.1278 15.856 18.2272 14.5814 21.875 14.5833H37.9167C39.1767 12.9228 40.6661 11.5354 42.385 10.4212C44.1039 9.30708 46.0172 8.75 48.125 8.75C48.5178 8.75 48.859 8.87639 49.1488 9.12917C49.4385 9.38194 49.5833 9.70472 49.5833 10.0975C49.5833 10.4903 49.4988 10.8247 49.3296 11.1008C49.0613 11.9719 48.8231 12.8275 48.615 13.6675C48.4069 14.5075 48.2174 15.3679 48.0462 16.2488L56.5892 24.7917H61.25V40.0867L53.5704 42.6183L48.8542 58.3333H37.9167V52.5H26.25V58.3333H15.3125Z" fill="#5386E4"/>
</svg>
