<svg width="20" height="20" viewBox="0 0 20 20" fill="none" xmlns="http://www.w3.org/2000/svg">
<path d="M9.167 1.66699V7.01196C8.82892 6.94957 8.48067 6.91699 8.12533 6.91699C4.9727 6.91699 2.41699 9.47266 2.41699 12.6253C2.41699 15.778 4.9727 18.3337 8.12533 18.3337C11.2779 18.3337 13.8337 15.778 13.8337 12.6253V9.51166C14.6972 9.87858 15.6385 10.0837 16.6671 10.0837H17.5004V5.41699H16.6671C15.0805 5.41699 13.8337 4.13582 13.8337 2.50033V1.66699H9.167ZM10.8337 3.33366H12.24C12.5682 5.18373 13.9728 6.66372 15.8338 7.00791V8.35716C14.9687 8.23034 14.1878 7.9057 13.4639 7.42116L12.167 6.55305V12.6253C12.167 14.8575 10.3575 16.667 8.12533 16.667C5.89318 16.667 4.08366 14.8575 4.08366 12.6253C4.08366 10.3932 5.89318 8.58366 8.12533 8.58366C8.19526 8.58366 8.26474 8.58541 8.33375 8.58891V9.92491C8.26496 9.91966 8.19545 9.91699 8.12533 9.91699C6.62956 9.91699 5.41699 11.1296 5.41699 12.6253C5.41699 14.1211 6.62956 15.3337 8.12533 15.3337C9.62108 15.3337 10.8337 14.1211 10.8337 12.6253C10.8337 9.52816 10.8327 6.43087 10.8337 3.33366ZM7.08366 12.6253C7.08366 12.05 7.55003 11.5837 8.12533 11.5837C8.70058 11.5837 9.167 12.05 9.167 12.6253C9.167 13.2007 8.70058 13.667 8.12533 13.667C7.55003 13.667 7.08366 13.2007 7.08366 12.6253Z" fill="white"/>
</svg>
