<svg width="70" height="70" viewBox="0 0 70 70" fill="none" xmlns="http://www.w3.org/2000/svg">
<path d="M49.5832 9.74164C53.9824 12.2816 57.6418 15.9265 60.1994 20.3154C62.7569 24.7044 64.1239 29.6851 64.1649 34.7647C64.2059 39.8443 62.9196 44.8465 60.4333 49.2762C57.947 53.7058 54.3469 57.4093 49.9894 60.0201C45.6319 62.6308 40.6681 64.0582 35.5894 64.161C30.5107 64.2638 25.4932 63.0384 21.0336 60.6061C16.574 58.1738 12.827 54.619 10.1635 50.2936C7.50002 45.9681 6.01236 41.022 5.84784 35.945L5.83325 35L5.84784 34.055C6.01118 29.0179 7.47693 24.109 10.1022 19.807C12.7275 15.505 16.4227 11.9567 20.8275 9.50796C25.2324 7.05922 30.1966 5.79363 35.2362 5.83458C40.2758 5.87553 45.2188 7.22163 49.5832 9.74164ZM34.9999 17.5C34.2855 17.5001 33.596 17.7623 33.0622 18.2371C32.5283 18.7118 32.1873 19.3659 32.1037 20.0754L32.0833 20.4166V35L32.1095 35.3821C32.176 35.8881 32.3741 36.3678 32.6841 36.7733L32.9378 37.065L41.6878 45.815L41.962 46.0541C42.4735 46.451 43.1025 46.6664 43.7499 46.6664C44.3973 46.6664 45.0263 46.451 45.5378 46.0541L45.812 45.8121L46.0541 45.5379C46.4509 45.0264 46.6663 44.3974 46.6663 43.75C46.6663 43.1026 46.4509 42.4736 46.0541 41.9621L45.812 41.6879L37.9166 33.7896V20.4166L37.8962 20.0754C37.8126 19.3659 37.4715 18.7118 36.9377 18.2371C36.4038 17.7623 35.7143 17.5001 34.9999 17.5Z" fill="#5386E4"/>
</svg>
