<svg width="22" height="22" viewBox="0 0 22 22" fill="none" xmlns="http://www.w3.org/2000/svg">
<path d="M20.3615 5.1852C19.6617 5.49476 18.9195 5.69807 18.1597 5.78842C18.9602 5.3092 19.5593 4.55531 19.8452 3.6672C19.093 4.11413 18.2696 4.42869 17.411 4.59721C16.6862 3.82396 15.6732 3.38576 14.6133 3.38697C12.4966 3.38697 10.7797 5.10321 10.7797 7.22091C10.7797 7.52135 10.8142 7.81271 10.8786 8.09382C7.69127 7.93336 4.86757 6.40803 2.97622 4.08828C2.63569 4.67335 2.45672 5.3384 2.45762 6.01535C2.45762 7.34536 3.13464 8.51929 4.16304 9.20657C3.55426 9.18732 2.95889 9.02291 2.42659 8.72691C2.426 8.74301 2.426 8.75912 2.426 8.77434C2.426 10.6324 3.74751 12.1823 5.50183 12.5342C5.17257 12.6233 4.83296 12.6683 4.49187 12.668C4.24414 12.668 4.00374 12.6452 3.77006 12.6003C4.25821 14.1231 5.67313 15.2317 7.3513 15.2622C5.99329 16.328 4.3163 16.9062 2.58998 16.9037C2.28445 16.904 1.97917 16.8859 1.67578 16.8498C3.42837 17.9765 5.4684 18.5744 7.55189 18.5722C14.604 18.5722 18.4598 12.7307 18.4598 7.66484C18.4598 7.49909 18.4558 7.33278 18.4485 7.16879C19.1989 6.62657 19.8468 5.95485 20.3615 5.1852Z" fill="#1E1E1E"/>
</svg>
