<svg width="20" height="20" viewBox="0 0 20 20" fill="none" xmlns="http://www.w3.org/2000/svg">
<path d="M18.5104 4.71386C17.8743 4.99528 17.1996 5.18011 16.5088 5.26224C17.2366 4.82659 17.7812 4.14124 18.0411 3.33386C17.3573 3.74016 16.6088 4.02613 15.8282 4.17933C15.1693 3.47637 14.2483 3.07801 13.2848 3.0791C11.3605 3.0791 9.79975 4.63933 9.79975 6.56451C9.79975 6.83764 9.83109 7.1025 9.88967 7.35806C6.99206 7.21219 4.42506 5.82553 2.70565 3.71666C2.39608 4.24855 2.23338 4.85314 2.2342 5.46854C2.2342 6.67764 2.84967 7.74485 3.78458 8.36965C3.23115 8.35215 2.6899 8.20269 2.20599 7.93359C2.20545 7.94824 2.20545 7.96288 2.20545 7.97672C2.20545 9.66582 3.40683 11.0748 5.00166 11.3947C4.70234 11.4757 4.3936 11.5167 4.08352 11.5164C3.85831 11.5164 3.63976 11.4957 3.42733 11.4549C3.8711 12.8392 5.15739 13.8471 6.683 13.8747C5.44845 14.8437 3.92391 15.3693 2.35453 15.3671C2.07677 15.3673 1.79925 15.3509 1.52344 15.3181C3.1167 16.3423 4.97127 16.8859 6.86535 16.8839C13.2763 16.8839 16.7817 11.5734 16.7817 6.96808C16.7817 6.8174 16.778 6.6662 16.7713 6.51713C17.4536 6.0242 18.0425 5.41355 18.5104 4.71386Z" fill="white"/>
</svg>
