<svg width="70" height="70" viewBox="0 0 70 70" fill="none" xmlns="http://www.w3.org/2000/svg">
<path fill-rule="evenodd" clip-rule="evenodd" d="M61.2788 29.6654L61.2876 40.2325C61.2117 41.2397 61.1155 42.245 60.9988 43.2483C60.8955 44.0754 60.5162 44.8434 59.9224 45.4282C59.3286 46.0131 58.5548 46.3806 57.7263 46.4713C52.3596 47.0721 46.8063 47.0721 41.4396 46.4713C40.6111 46.3806 39.8374 46.0131 39.2436 45.4282C38.6497 44.8434 38.2705 44.0754 38.1671 43.2483C37.525 37.7682 37.525 32.2318 38.1671 26.7517C38.2705 25.9246 38.6497 25.1566 39.2436 24.5718C39.8374 23.9869 40.6111 23.6195 41.4396 23.5288C46.852 22.9302 52.3139 22.9302 57.7263 23.5288C59.4384 23.7183 60.8034 25.0746 60.9988 26.7517C61.1116 27.722 61.2049 28.6942 61.2788 29.6683M49.583 30.625C48.4227 30.625 47.3099 31.0859 46.4894 31.9064C45.6689 32.7269 45.208 33.8397 45.208 35C45.208 36.1603 45.6689 37.2731 46.4894 38.0936C47.3099 38.9141 48.4227 39.375 49.583 39.375C50.7433 39.375 51.8561 38.9141 52.6766 38.0936C53.497 37.2731 53.958 36.1603 53.958 35C53.958 33.8397 53.497 32.7269 52.6766 31.9064C51.8561 31.0859 50.7433 30.625 49.583 30.625Z" fill="#5386E4"/>
<path d="M59.5119 17.6167C59.964 18.4013 59.1124 19.2792 58.2111 19.18C52.4768 18.548 46.6904 18.548 40.9561 19.18C39.1444 19.3802 37.4537 20.187 36.1585 21.4694C34.8634 22.7519 34.0399 24.4346 33.8219 26.2442C33.1457 32.0618 33.1457 37.9382 33.8219 43.7559C34.0399 45.5655 34.8634 47.2482 36.1585 48.5306C37.4537 49.8131 39.1444 50.6199 40.9561 50.82C46.6904 51.4521 52.4768 51.4521 58.2111 50.82C59.1182 50.718 59.9786 51.6046 59.5207 52.395C58.3756 54.3702 56.7801 56.0469 54.8642 57.2887C52.9484 58.5305 50.7663 59.3022 48.4957 59.5409L46.594 59.7392C36.9373 60.7537 27.1974 60.6862 17.5557 59.538L16.2957 59.3892C13.7682 59.0889 11.4125 57.9559 9.60003 56.1688C7.7876 54.3818 6.62153 52.0423 6.28568 49.5192C4.99852 39.8826 4.99852 30.1175 6.28568 20.4809C6.62153 17.9578 7.7876 15.6183 9.60003 13.8312C11.4125 12.0442 13.7682 10.9112 16.2957 10.6109L17.5557 10.4621C27.1974 9.31391 36.9373 9.24641 46.594 10.2609L48.4957 10.4621C50.7662 10.7008 52.948 11.4735 54.8627 12.717C56.7773 13.9605 58.3705 15.6395 59.5119 17.6167Z" fill="#5386E4"/>
</svg>
