<svg width="17" height="18" viewBox="0 0 17 18" fill="none" xmlns="http://www.w3.org/2000/svg">
<path fill-rule="evenodd" clip-rule="evenodd" d="M14.1687 3.32501C12.6648 1.81921 10.6647 0.989534 8.5336 0.98877C4.14227 0.98877 0.568376 4.56228 0.566848 8.95477C0.566084 10.3589 0.933176 11.7295 1.63031 12.9374L0.5 17.0659L4.72327 15.9581C5.8868 16.593 7.19702 16.9273 8.53018 16.9277H8.5336C12.9242 16.9277 16.4985 13.3537 16.5 8.96126C16.5008 6.83246 15.673 4.8312 14.1687 3.3254V3.32501ZM8.5336 15.5823H8.53093C7.34293 15.5819 6.17751 15.2625 5.16067 14.6594L4.91885 14.5158L2.41262 15.1732L3.08148 12.7296L2.9241 12.479C2.26135 11.4247 1.91107 10.2061 1.91183 8.95517C1.91336 5.30448 4.88371 2.33413 8.53631 2.33413C10.3049 2.3349 11.9673 3.02439 13.2176 4.27617C14.4678 5.52757 15.1558 7.19152 15.155 8.9605C15.1535 12.6116 12.1832 15.5819 8.5336 15.5819V15.5823ZM12.1656 10.6233C11.9665 10.5236 10.9879 10.0423 10.8053 9.97584C10.6227 9.90935 10.4902 9.87615 10.3576 10.0755C10.2251 10.2749 9.84347 10.7234 9.72733 10.8559C9.6112 10.9889 9.49507 11.0053 9.29604 10.9056C9.09707 10.8059 8.45569 10.5958 7.69516 9.91775C7.10347 9.38984 6.70387 8.73819 6.58778 8.53877C6.47164 8.33939 6.57556 8.23166 6.67484 8.13272C6.76422 8.04335 6.87387 7.9001 6.97356 7.78397C7.07329 7.66784 7.10613 7.58459 7.17258 7.45201C7.23907 7.31908 7.20582 7.20299 7.15618 7.10326C7.10649 7.00357 6.70849 6.02375 6.54231 5.62535C6.38071 5.23725 6.21649 5.28997 6.09462 5.28348C5.97849 5.27774 5.84596 5.2766 5.71302 5.2766C5.58009 5.2766 5.36462 5.32626 5.18204 5.52566C4.99947 5.72504 4.48529 6.20672 4.48529 7.18615C4.48529 8.16557 5.19849 9.11255 5.29818 9.24548C5.39787 9.37841 6.70196 11.3888 8.69862 12.2513C9.17347 12.4565 9.54436 12.5791 9.83351 12.6708C10.3103 12.8224 10.7442 12.801 11.0872 12.7498C11.4696 12.6925 12.2649 12.2681 12.4307 11.8033C12.5964 11.3384 12.5964 10.9396 12.5468 10.8567C12.4972 10.7738 12.3642 10.7237 12.1652 10.6241L12.1656 10.6233Z" fill="#2CB742"/>
</svg>
