<svg width="20" height="20" viewBox="0 0 20 20" fill="none" xmlns="http://www.w3.org/2000/svg">
<path d="M8.33366 12.5003L12.6587 10.0003L8.33366 7.50033V12.5003ZM17.967 5.97533C18.0753 6.36699 18.1503 6.89199 18.2003 7.55866C18.2587 8.22533 18.2837 8.80033 18.2837 9.30033L18.3337 10.0003C18.3337 11.8253 18.2003 13.167 17.967 14.0253C17.7587 14.7753 17.2753 15.2587 16.5253 15.467C16.1337 15.5753 15.417 15.6503 14.317 15.7003C13.2337 15.7587 12.242 15.7837 11.3253 15.7837L10.0003 15.8337C6.50866 15.8337 4.33366 15.7003 3.47533 15.467C2.72533 15.2587 2.24199 14.7753 2.03366 14.0253C1.92533 13.6337 1.85033 13.1087 1.80033 12.442C1.74199 11.7753 1.71699 11.2003 1.71699 10.7003L1.66699 10.0003C1.66699 8.17533 1.80033 6.83366 2.03366 5.97533C2.24199 5.22533 2.72533 4.74199 3.47533 4.53366C3.86699 4.42533 4.58366 4.35033 5.68366 4.30033C6.76699 4.24199 7.75866 4.21699 8.67533 4.21699L10.0003 4.16699C13.492 4.16699 15.667 4.30033 16.5253 4.53366C17.2753 4.74199 17.7587 5.22533 17.967 5.97533Z" fill="white"/>
</svg>
