<svg width="22" height="22" viewBox="0 0 22 22" fill="none" xmlns="http://www.w3.org/2000/svg">
<path d="M9.16707 13.7504L13.9246 11.0004L9.16707 8.25041V13.7504ZM19.7637 6.57291C19.8829 7.00374 19.9654 7.58124 20.0204 8.31457C20.0846 9.04791 20.1121 9.68041 20.1121 10.2304L20.1671 11.0004C20.1671 13.0079 20.0204 14.4837 19.7637 15.4279C19.5346 16.2529 19.0029 16.7846 18.1779 17.0137C17.7471 17.1329 16.9587 17.2154 15.7487 17.2704C14.5571 17.3346 13.4662 17.3621 12.4579 17.3621L11.0004 17.4171C7.15957 17.4171 4.76707 17.2704 3.82291 17.0137C2.99791 16.7846 2.46624 16.2529 2.23707 15.4279C2.11791 14.9971 2.03541 14.4196 1.98041 13.6862C1.91624 12.9529 1.88874 12.3204 1.88874 11.7704L1.83374 11.0004C1.83374 8.99291 1.98041 7.51707 2.23707 6.57291C2.46624 5.74791 2.99791 5.21624 3.82291 4.98707C4.25374 4.86791 5.04207 4.78541 6.25207 4.73041C7.44374 4.66624 8.53457 4.63874 9.54291 4.63874L11.0004 4.58374C14.8412 4.58374 17.2337 4.73041 18.1779 4.98707C19.0029 5.21624 19.5346 5.74791 19.7637 6.57291Z" fill="#1E1E1E"/>
</svg>
